# xmcd
#
# Track frame offsets: 
#        150
#        15132
#        30189
#        43185
#        56690
#        76982
#        88849
#        106251
#        121237
#        140735
#        156086
#        167334
#        181554
#        193031
#        207894
#
# Disc length: 3393 seconds
#
# Revision: 3
# Processed by: cddbd v1.5.1PL2 Copyright (c) Steve Scherf et al.
# Submitted via: ExactAudioCopy v0.90b3
#
DISCID=b10d3f0f
DTITLE=Robbie Williams - Swing When You're Winning
DYEAR=1900
DGENRE=
TTITLE0=I Will Talk And Hollywood Will Listen
TTITLE1=Mack The Knife
TTITLE2=Somethin' Stupid
TTITLE3=Do Nothing Till You Hear From Me
TTITLE4=It Was A Very Good Year
TTITLE5=Straighten Up And Fly Right
TTITLE6=Well, Did You Evah
TTITLE7=Mr. Bojangles
TTITLE8=One For My Baby
TTITLE9=Things
TTITLE10=Ain't That A Kick In The Head
TTITLE11=They Can't Take That Away Fromme
TTITLE12=Have You Met Miss Jones?
TTITLE13=Me And My Shadow
TTITLE14=Beyond The Sea
EXTD=
EXTT0=
EXTT1=
EXTT2=
EXTT3=
EXTT4=
EXTT5=
EXTT6=
EXTT7=
EXTT8=
EXTT9=
EXTT10=
EXTT11=
EXTT12=
EXTT13=
EXTT14=
PLAYORDER=
